<svg width="512.045" height="512.045" xmlns="http://www.w3.org/2000/svg">
 <g>
  <title>background</title>
  <rect x="-1" y="-1" width="384.12222" height="384.12222" id="canvas_background" fill="none"/>
 </g>
 <defs>
  <filter id="svg_1_blur">
   <feGaussianBlur stdDeviation="2.8" in="SourceGraphic"/>
  </filter>
 </defs>
 <g>
  <title>Layer 1</title>
  <g filter="url(#svg_1_blur)" opacity="0.47" stroke="null" id="svg_1">
   <g stroke="null" id="svg_2">
    <rect stroke="null" x="200.166982" y="307.613451" width="111.275863" height="95.774855" fill="#FCB47E" id="svg_3"/>
   </g>
   <g stroke="null" id="svg_4">
    <path stroke="null" d="m287.816594,405.179476c-19.111632,11.263679 -31.7941,12.943421 -31.7941,12.943421s-12.679485,-1.678817 -31.787137,-12.938811c0,0 -11.483269,-26.967072 -8.171818,-23.897673c3.31145,3.069409 39.958956,0 39.958956,0l31.575518,7.367305l0.218581,16.525758z" fill="#4296D9" id="svg_5"/>
   </g>
   <g stroke="null" id="svg_6">
    <path stroke="null" d="m351.184227,344.449939l82.725654,12.913944c33.308248,8.650124 52.612618,38.951823 52.612618,67.337095l0,47.741917c0,10.688112 -10.675532,19.352969 -23.844832,19.352969l-413.310346,0c-13.1693,0 -23.844821,-8.664857 -23.844821,-19.352969l0,-47.741917c0,-28.385272 19.30437,-58.686971 52.612618,-67.337095l82.290486,-12.913944l95.596889,36.836474l95.161733,-36.836474z" fill="#996459" id="svg_7"/>
   </g>
   <g stroke="null" id="svg_8">
    <path stroke="null" d="m123.462142,350.250758c0.123199,0.235751 0.122212,0.506501 0.273229,0.731205c60.426768,90.321212 119.254937,102.264525 125.759605,103.321727l5.146503,0.841719c0.458028,0.0792 0.916046,0.115113 1.382013,0.115113c0.465967,0 0.923985,-0.035914 1.382002,-0.115113l5.146514,-0.841719c6.504668,-1.057202 65.332837,-13.000515 125.759605,-103.321727c0.144065,-0.21457 0.1381,-0.472425 0.256333,-0.697129l-37.381735,-5.835819l-95.161733,36.836484l-95.596889,-36.836484l-36.965449,5.801743z" fill="#7E5C62" id="svg_9"/>
   </g>
   <g stroke="null" id="svg_10">
    <path stroke="null" d="m184.489008,307.613455l-30.002752,36.836474l48.450702,66.289103c2.799782,3.83007 8.67057,4.348543 12.200602,1.077459l40.885933,-30.530077l-71.534485,-73.672958z" fill="#4BB9EC" id="svg_11"/>
   </g>
   <g stroke="null" id="svg_12">
    <path stroke="null" d="m327.556979,307.613455l30.002752,36.836474l-48.450702,66.289103c-2.799782,3.83007 -8.67057,4.348543 -12.200602,1.077459l-40.885933,-30.530077l71.534485,-73.672958z" fill="#4BB9EC" id="svg_13"/>
   </g>
   <g stroke="null" id="svg_14">
    <path stroke="null" d="m367.486143,181.00646l-16.083345,-35.473531c0,0 -69.547407,-35.608911 -182.810341,-22.101895l-0.217584,0c-20.329701,23.784398 -31.793102,52.998493 -31.793102,88.407557c0,73.239218 53.378635,132.611336 119.224137,132.611336s119.224137,-59.372118 119.224137,-132.611336c0,-11.885284 -1.537986,-23.346962 -4.174833,-34.306739c-2.057604,2.130996 -3.36907,3.474606 -3.36907,3.474606z" fill="#FFDCAD" id="svg_15"/>
   </g>
   <g stroke="null" id="svg_16">
    <circle stroke="null" cx="208.115258" cy="211.838596" r="29.469183" fill="#AEEFFF" id="svg_17"/>
   </g>
   <g stroke="null" id="svg_18">
    <path stroke="null" d="m208.115258,182.369414c-8.723233,0 -16.617853,3.266474 -22.361483,8.53961l44.941536,41.656538c5.689979,-5.324708 9.213048,-12.641355 9.213048,-20.72697c0,-16.275275 -14.23337,-29.469179 -31.793102,-29.469179z" fill="#FFFFFF" id="svg_19"/>
   </g>
   <g stroke="null" id="svg_20">
    <circle stroke="null" cx="303.494569" cy="211.838596" r="29.469191" fill="#AEEFFF" id="svg_21"/>
   </g>
   <g stroke="null" id="svg_22">
    <path stroke="null" d="m303.712158,182.369414c-8.723233,0 -16.617864,3.266474 -22.361483,8.53961l44.941536,41.656538c5.689969,-5.324708 9.213048,-12.641355 9.213048,-20.72697c0,-16.275275 -14.233381,-29.469179 -31.793102,-29.469179z" fill="#FFFFFF" id="svg_23"/>
   </g>
   <g stroke="null" id="svg_24">
    <path stroke="null" d="m382.519312,39.419916c-1.428701,-3.021514 -4.820632,-4.776779 -8.398349,-4.323687c-19.917385,2.668802 -44.065237,-1.856559 -69.610004,-6.604786c-42.846181,-7.971415 -87.128015,-16.216332 -121.746732,6.676614c-0.504706,-0.093933 -1.032272,-0.143656 -1.575738,-0.143656c-35.496014,0 -60.287681,27.267279 -60.287681,66.305663c0,31.79265 15.206049,92.59495 15.857812,95.170743c0.814699,3.23056 3.865837,5.561382 7.443554,5.683868c0.101346,0.007372 0.201685,0.007372 0.295082,0.007372c3.46147,0 6.543417,-2.086786 7.58365,-5.165405l22.564165,-66.860049c94.921288,-10.165953 157.87064,15.051388 170.562054,20.720522l14.949705,32.979699c1.288616,2.834562 4.346716,4.791502 7.677047,4.50418c3.330321,-0.136294 6.209586,-2.179795 7.22597,-5.123033c23.821981,-69.198254 15.09775,-127.741559 7.459463,-143.828044z" fill="#7E5C62" id="svg_25"/>
   </g>
   <g stroke="null" id="svg_26">
    <g stroke="null" id="svg_27">
     <path stroke="null" d="m271.919046,219.205887c-4.393404,0 -7.94827,-3.295016 -7.94827,-7.367295c0,-4.064907 -3.562816,-7.367295 -7.948281,-7.367295c-4.385454,0 -7.94827,3.302388 -7.94827,7.367295c0,4.072279 -3.554867,7.367295 -7.948281,7.367295s-7.94827,-3.295016 -7.94827,-7.367295c0,-12.187349 10.696387,-22.101884 23.844832,-22.101884s23.844821,9.914535 23.844821,22.101884c0,4.072279 -3.554867,7.367295 -7.94827,7.367295l-0.000011,0z" fill="#5C546A" id="svg_28"/>
    </g>
   </g>
   <g stroke="null" id="svg_29">
    <g stroke="null" id="svg_30">
     <path stroke="null" d="m176.53974,211.838593l-39.958966,0c-4.393414,0 -7.94827,-3.295016 -7.94827,-7.367295s3.554867,-7.367295 7.94827,-7.367295l39.958966,0c4.393414,0 7.94827,3.295026 7.94827,7.367295s-3.554867,7.367295 -7.94827,7.367295z" fill="#5C546A" id="svg_31"/>
    </g>
   </g>
   <g stroke="null" id="svg_32">
    <g stroke="null" id="svg_33">
     <path stroke="null" d="m375.029049,211.838593l-39.523789,0c-4.393414,0 -7.948281,-3.295016 -7.948281,-7.367295s3.554867,-7.367295 7.948281,-7.367295l39.523789,0c4.393414,0 7.948281,3.295026 7.948281,7.367295s-3.554867,7.367295 -7.948281,7.367295z" fill="#5C546A" id="svg_34"/>
    </g>
   </g>
   <g stroke="null" id="svg_35">
    <g stroke="null" id="svg_36">
     <path stroke="null" d="m208.332842,248.675077c-21.912402,0 -39.741383,-16.525769 -39.741383,-36.836484s17.828981,-36.836484 39.741383,-36.836484s39.741383,16.525769 39.741383,36.836484s-17.828981,36.836484 -39.741383,36.836484zm0,-58.938368c-13.148434,0 -23.844832,9.914535 -23.844832,22.101884s10.696397,22.101895 23.844832,22.101895s23.844832,-9.914546 23.844832,-22.101895s-10.696397,-22.101884 -23.844832,-22.101884z" fill="#868491" id="svg_37"/>
    </g>
   </g>
   <g stroke="null" id="svg_38">
    <g stroke="null" id="svg_39">
     <path stroke="null" d="m303.712158,248.675077c-21.912412,0 -39.741383,-16.525769 -39.741383,-36.836484s17.828981,-36.836484 39.741383,-36.836484s39.741372,16.525769 39.741372,36.836484s-17.828971,36.836484 -39.741372,36.836484zm0,-58.938368c-13.148434,0 -23.844832,9.914535 -23.844832,22.101884s10.696397,22.101895 23.844832,22.101895s23.844821,-9.914546 23.844821,-22.101895s-10.696387,-22.101884 -23.844821,-22.101884z" fill="#868491" id="svg_40"/>
    </g>
   </g>
   <g stroke="null" id="svg_41">
    <path stroke="null" d="m105.005255,491.795865l0,-49.261432c0,-17.712817 -7.443564,-34.361071 -20.949668,-46.879942l-29.367885,-27.221242c-4.212584,3.054666 -8.018817,6.510843 -11.366034,10.300399l29.495054,27.339117c10.509614,9.741403 16.291982,22.692195 16.291982,36.462591l0,49.261432l15.896551,-0.000924l0,0z" fill="#7E5C62" id="svg_42"/>
   </g>
   <g stroke="null" id="svg_43">
    <path stroke="null" d="m457.357297,368.432325l-29.367885,27.221242c-13.514063,12.518881 -20.949668,29.167124 -20.949668,46.879952l0,49.261421l15.896551,0l0,-49.261421c0,-13.770406 5.782368,-26.721188 16.291971,-36.462601l29.496051,-27.340031c-3.347217,-3.787708 -7.154437,-7.242972 -11.367021,-10.298562z" fill="#7E5C62" id="svg_44"/>
   </g>
  </g>
  <g id="svg_45"/>
  <g id="svg_46"/>
  <g id="svg_47"/>
  <g id="svg_48"/>
  <g id="svg_49"/>
  <g id="svg_50"/>
  <g id="svg_51"/>
  <g id="svg_52"/>
  <g id="svg_53"/>
  <g id="svg_54"/>
  <g id="svg_55"/>
  <g id="svg_56"/>
  <g id="svg_57"/>
  <g id="svg_58"/>
  <g id="svg_59"/>
  <g id="svg_109">
   <g transform="matrix(7.112361539068161,0,0,7.112361539068161,0,0) " id="svg_64">
    <path id="svg_88" fill="#78b9eb" d="m64.934677,61.613928l-15.64,-15.65a24.1,24.1 0 1 0 -2.75,2.91l15.57,15.56a1.994,1.994 0 0 0 2.82,-2.82zm-34.41,-10.59a20,20 0 1 1 20,-20a19.994,19.994 0 0 1 -20,20z"/>
    <path id="svg_89" fill="#78b9eb" d="m36.524677,23.023928l4,0l0,14l-4,0l0,-14z"/>
    <path id="svg_90" fill="#78b9eb" d="m28.524677,25.023928l4,0l0,12l-4,0l0,-12z"/>
    <path id="svg_91" fill="#78b9eb" d="m20.524677,27.023928l4,0l0,10l-4,0l0,-10z"/>
    <g id="svg_92" fill="#1a6fb0">
     <path id="svg_93" d="m30.524677,10.023928a21,21 0 1 0 21,21a21.024,21.024 0 0 0 -21,-21zm0,40a19,19 0 1 1 19,-19a19.022,19.022 0 0 1 -19,19z"/>
     <path id="svg_94" d="m50.617677,45.875928a25.043,25.043 0 1 0 -4.123,4.363l14.906,14.9a2.994,2.994 0 1 0 4.238,-4.229l-15.021,-15.034zm-43.093,-14.852a23,23 0 1 1 23,23a23.025,23.025 0 0 1 -23,-23zm56.7,32.708a0.991,0.991 0 0 1 -1.4,0l-14.846,-14.836q0.717,-0.7 1.374,-1.456l14.872,14.884a0.971,0.971 0 0 1 0.3,0.7a0.983,0.983 0 0 1 -0.3,0.708z"/>
     <path id="svg_95" d="m20.524677,38.023928l4,0a1,1 0 0 0 1,-1l0,-10a1,1 0 0 0 -1,-1l-4,0a1,1 0 0 0 -1,1l0,10a1,1 0 0 0 1,1zm1,-10l2,0l0,8l-2,0l0,-8z"/>
     <path id="svg_96" d="m28.524677,38.023928l4,0a1,1 0 0 0 1,-1l0,-12a1,1 0 0 0 -1,-1l-4,0a1,1 0 0 0 -1,1l0,12a1,1 0 0 0 1,1zm1,-12l2,0l0,10l-2,0l0,-10z"/>
     <path id="svg_97" d="m40.524677,22.023928l-4,0a1,1 0 0 0 -1,1l0,14a1,1 0 0 0 1,1l4,0a1,1 0 0 0 1,-1l0,-14a1,1 0 0 0 -1,-1zm-1,14l-2,0l0,-12l2,0l0,12z"/>
     <path id="svg_98" d="m52.938677,10.023928l2.586,0l0,-2l-3,0a1,1 0 0 0 -0.707,0.293l-3,3l1.414,1.414l2.707,-2.707z"/>
     <path id="svg_99" d="m57.524677,8.023928l9,0l0,2l-9,0l0,-2z"/>
     <path id="svg_100" d="m57.524677,12.023928l2,0l0,2l-2,0l0,-2z"/>
     <path id="svg_101" d="m61.524677,12.023928l5,0l0,2l-5,0l0,-2z"/>
     <path id="svg_102" d="m57.524677,16.023928l9,0l0,2l-9,0l0,-2z"/>
     <path id="svg_103" d="m20.110677,62.023928l-2.586,0l0,2l3,0a1,1 0 0 0 0.707,-0.293l3,-3l-1.414,-1.414l-2.707,2.707z"/>
     <path id="svg_104" d="m6.524677,62.023928l9,0l0,2l-9,0l0,-2z"/>
     <path id="svg_105" d="m13.524677,58.023928l2,0l0,2l-2,0l0,-2z"/>
     <path id="svg_106" d="m6.524677,58.023928l5,0l0,2l-5,0l0,-2z"/>
     <path id="svg_107" d="m6.524677,54.023928l9,0l0,2l-9,0l0,-2z"/>
     <path id="svg_108" d="m19.524677,40.023928l22,0l0,2l-22,0l0,-2z"/>
    </g>
   </g>
  </g>
 </g>
</svg>