<svg width="511.99" height="511.99" xmlns="http://www.w3.org/2000/svg">
 <defs>
  <filter id="svg_63_blur">
   <feGaussianBlur stdDeviation="2.8" in="SourceGraphic"/>
  </filter>
 </defs>
 <g>
  <title>background</title>
  <rect fill="none" id="canvas_background" height="402" width="582" y="-1" x="-1"/>
 </g>
 <g>
  <title>Layer 1</title>
  <g filter="url(#svg_63_blur)" opacity="0.49" id="svg_63">
   <path id="svg_1" fill="#48CFAD" d="m479.991005,42.659l-447.992,0c-5.891,0 -10.664,4.781 -10.664,10.672l0,277.316c0,5.906 4.773,10.688 10.664,10.688l447.992,0c5.891,0 10.656,-4.781 10.656,-10.688l0,-277.316c0,-5.891 -4.765,-10.672 -10.656,-10.672z"/>
   <path id="svg_2" fill="#434A54" d="m501.335005,341.335l-490.671,0c-5.891,0 -10.664,-4.781 -10.664,-10.688c0,-5.875 4.773,-10.656 10.664,-10.656l490.671,0c5.875,0 10.655,4.781 10.655,10.656c0,5.907 -4.78,10.688 -10.655,10.688z"/>
   <g id="svg_3">
    <path id="svg_4" fill="#F5F7FA" d="m170.661005,277.335c-22.789,0 -44.218,-8.883 -60.335,-25.007c-16.117,-16.109 -24.991,-37.539 -24.991,-60.335s8.874,-44.226 24.991,-60.343s37.546,-24.992 60.335,-24.992c22.797,0 44.226,8.875 60.343,25c16.116,16.108 24.991,37.538 24.991,60.335c0,22.796 -8.875,44.218 -24.991,60.335c-16.117,16.124 -37.546,25.007 -60.343,25.007zm0,-149.341c-17.094,0 -33.164,6.656 -45.249,18.742c-12.094,12.094 -18.75,28.164 -18.75,45.257s6.656,33.163 18.75,45.257c12.085,12.086 28.155,18.742 45.249,18.742s33.171,-6.656 45.257,-18.742c12.086,-12.094 18.742,-28.164 18.742,-45.257s-6.656,-33.164 -18.742,-45.257c-12.086,-12.087 -28.163,-18.742 -45.257,-18.742z"/>
    <path id="svg_5" fill="#F5F7FA" d="m253.628005,109.025c-4.164,-4.164 -10.921,-4.164 -15.085,0s-4.164,10.921 0,15.085c4.172,4.164 10.921,4.164 15.085,0s4.164,-10.921 0,-15.085z"/>
    <path id="svg_6" fill="#F5F7FA" d="m223.457005,139.196c-4.164,-4.164 -10.914,-4.164 -15.078,0c-4.172,4.164 -4.172,10.922 0,15.086c4.164,4.164 10.914,4.164 15.078,0c4.172,-4.164 4.172,-10.922 0,-15.086z"/>
    <path id="svg_7" fill="#F5F7FA" d="m193.294005,169.368c-4.172,-4.164 -10.922,-4.164 -15.086,0s-4.164,10.914 0,15.086c4.164,4.164 10.922,4.164 15.086,0c4.164,-4.172 4.164,-10.922 0,-15.086z"/>
    <path id="svg_8" fill="#F5F7FA" d="m163.122005,199.532c-4.164,-4.164 -10.922,-4.164 -15.086,0c-4.164,4.171 -4.164,10.921 0,15.085c4.164,4.172 10.922,4.172 15.086,0c4.164,-4.164 4.164,-10.914 0,-15.085z"/>
    <path id="svg_9" fill="#F5F7FA" d="m132.950005,229.703c-4.163,-4.164 -10.921,-4.164 -15.085,0s-4.164,10.922 0,15.086c4.172,4.164 10.922,4.164 15.085,0c4.164,-4.165 4.164,-10.915 0,-15.086z"/>
    <path id="svg_10" fill="#F5F7FA" d="m102.779005,259.874c-4.164,-4.164 -10.914,-4.164 -15.077,0c-4.172,4.164 -4.172,10.922 0,15.086c4.163,4.156 10.913,4.156 15.077,0c4.172,-4.164 4.172,-10.922 0,-15.086z"/>
    <path id="svg_11" fill="#F5F7FA" d="m416.180005,170.657l-106.654,0c-5.906,0 -10.672,-4.773 -10.672,-10.664s4.766,-10.664 10.672,-10.664l106.653,0c5.891,0 10.672,4.773 10.672,10.664s-4.781,10.664 -10.671,10.664z"/>
    <path id="svg_12" fill="#F5F7FA" d="m415.992005,213.328l-106.653,0c-5.906,0 -10.688,-4.781 -10.688,-10.671s4.781,-10.664 10.688,-10.664l106.653,0c5.891,0 10.656,4.773 10.656,10.664c0,5.89 -4.765,10.671 -10.656,10.671z"/>
    <path id="svg_13" fill="#F5F7FA" d="m362.852005,255.992l-53.717,0c-5.891,0 -10.672,-4.773 -10.672,-10.664s4.781,-10.672 10.672,-10.672l53.717,0c5.891,0 10.672,4.781 10.672,10.672s-4.781,10.664 -10.672,10.664z"/>
   </g>
   <path id="svg_14" fill="#5D9CEC" d="m95.998005,355.333c-41.171,0 -74.663,33.484 -74.663,74.656l0,28.654c0,5.906 4.773,10.688 10.664,10.688l127.998,0c5.891,0 10.664,-4.781 10.664,-10.688l0,-28.654c0,-41.172 -33.492,-74.656 -74.663,-74.656z"/>
   <path id="svg_15" fill="#ED5564" d="m255.995005,355.333c-41.171,0 -74.662,33.484 -74.662,74.656l0,28.654c0,5.906 4.773,10.688 10.664,10.688l127.998,0c5.89,0 10.655,-4.781 10.655,-10.688l0,-28.654c0,-41.172 -33.483,-74.656 -74.655,-74.656z"/>
   <path id="svg_16" fill="#A0D468" d="m415.992005,355.333c-41.171,0 -74.654,33.484 -74.654,74.656l0,28.654c0,5.906 4.766,10.688 10.656,10.688l127.997,0c5.891,0 10.656,-4.781 10.656,-10.688l0,-28.654c0,-41.172 -33.483,-74.656 -74.655,-74.656z"/>
   <g id="svg_17">
    <path id="svg_18" fill="#EAC6BB" d="m95.240005,298.647c-29.405,0 -53.335,23.938 -53.335,53.342c0,29.406 23.93,53.344 53.335,53.344c29.406,0 53.335,-23.938 53.335,-53.344c0,-29.404 -23.929,-53.342 -53.335,-53.342z"/>
    <path id="svg_19" fill="#EAC6BB" d="m255.237005,298.647c-29.405,0 -53.335,23.938 -53.335,53.342c0,29.406 23.93,53.344 53.335,53.344c29.414,0 53.336,-23.938 53.336,-53.344c0,-29.404 -23.922,-53.342 -53.336,-53.342z"/>
    <path id="svg_20" fill="#EAC6BB" d="m415.242005,298.647c-29.406,0 -53.343,23.938 -53.343,53.342c0,29.406 23.937,53.344 53.343,53.344s53.328,-23.938 53.328,-53.344c0,-29.404 -23.922,-53.342 -53.328,-53.342z"/>
   </g>
  </g>
  <g id="svg_21"/>
  <g id="svg_22"/>
  <g id="svg_23"/>
  <g id="svg_24"/>
  <g id="svg_25"/>
  <g id="svg_26"/>
  <g id="svg_27"/>
  <g id="svg_28"/>
  <g id="svg_29"/>
  <g id="svg_30"/>
  <g id="svg_31"/>
  <g id="svg_32"/>
  <g id="svg_33"/>
  <g id="svg_34"/>
  <g id="svg_35"/>
  <g id="svg_62">
   <g transform="matrix(7.110833064783947,0,0,7.110833064783947,0,0) " id="svg_39">
    <path stroke-dasharray="5,2,2,2" stroke-width="99" id="svg_41" fill="#78b9eb" d="m64.938559,61.617757l-15.64,-15.65a24.1,24.1 0 1 0 -2.75,2.91l15.57,15.56a1.994,1.994 0 0 0 2.82,-2.82zm-34.41,-10.59a20,20 0 1 1 20,-20a19.994,19.994 0 0 1 -20,20z"/>
    <path stroke-dasharray="5,2,2,2" stroke-width="99" id="svg_42" fill="#78b9eb" d="m36.528559,23.027757l4,0l0,14l-4,0l0,-14z"/>
    <path stroke-dasharray="5,2,2,2" stroke-width="99" id="svg_43" fill="#78b9eb" d="m28.528559,25.027757l4,0l0,12l-4,0l0,-12z"/>
    <path stroke-dasharray="5,2,2,2" stroke-width="99" id="svg_44" fill="#78b9eb" d="m20.528559,27.027757l4,0l0,10l-4,0l0,-10z"/>
    <g id="svg_45" fill="#1a6fb0">
     <path stroke-dasharray="5,2,2,2" stroke-width="99" id="svg_46" d="m30.528559,10.027757a21,21 0 1 0 21,21a21.024,21.024 0 0 0 -21,-21zm0,40a19,19 0 1 1 19,-19a19.022,19.022 0 0 1 -19,19z"/>
     <path stroke-dasharray="5,2,2,2" stroke-width="99" id="svg_47" d="m50.621559,45.879757a25.043,25.043 0 1 0 -4.123,4.363l14.906,14.9a2.994,2.994 0 1 0 4.238,-4.229l-15.021,-15.034zm-43.093,-14.852a23,23 0 1 1 23,23a23.025,23.025 0 0 1 -23,-23zm56.7,32.708a0.991,0.991 0 0 1 -1.4,0l-14.846,-14.836q0.717,-0.7 1.374,-1.456l14.872,14.884a0.971,0.971 0 0 1 0.3,0.7a0.983,0.983 0 0 1 -0.3,0.708z"/>
     <path stroke-dasharray="5,2,2,2" stroke-width="99" id="svg_48" d="m20.528559,38.027757l4,0a1,1 0 0 0 1,-1l0,-10a1,1 0 0 0 -1,-1l-4,0a1,1 0 0 0 -1,1l0,10a1,1 0 0 0 1,1zm1,-10l2,0l0,8l-2,0l0,-8z"/>
     <path stroke-dasharray="5,2,2,2" stroke-width="99" id="svg_49" d="m28.528559,38.027757l4,0a1,1 0 0 0 1,-1l0,-12a1,1 0 0 0 -1,-1l-4,0a1,1 0 0 0 -1,1l0,12a1,1 0 0 0 1,1zm1,-12l2,0l0,10l-2,0l0,-10z"/>
     <path stroke-dasharray="5,2,2,2" stroke-width="99" id="svg_50" d="m40.528559,22.027757l-4,0a1,1 0 0 0 -1,1l0,14a1,1 0 0 0 1,1l4,0a1,1 0 0 0 1,-1l0,-14a1,1 0 0 0 -1,-1zm-1,14l-2,0l0,-12l2,0l0,12z"/>
     <path stroke-dasharray="5,2,2,2" stroke-width="99" id="svg_51" d="m52.942559,10.027757l2.586,0l0,-2l-3,0a1,1 0 0 0 -0.707,0.293l-3,3l1.414,1.414l2.707,-2.707z"/>
     <path stroke-dasharray="5,2,2,2" stroke-width="99" id="svg_52" d="m57.528559,8.027757l9,0l0,2l-9,0l0,-2z"/>
     <path stroke-dasharray="5,2,2,2" stroke-width="99" id="svg_53" d="m57.528559,12.027757l2,0l0,2l-2,0l0,-2z"/>
     <path stroke-dasharray="5,2,2,2" stroke-width="99" id="svg_54" d="m61.528559,12.027757l5,0l0,2l-5,0l0,-2z"/>
     <path stroke-dasharray="5,2,2,2" stroke-width="99" id="svg_55" d="m57.528559,16.027757l9,0l0,2l-9,0l0,-2z"/>
     <path stroke-dasharray="5,2,2,2" stroke-width="99" id="svg_56" d="m20.114559,62.027757l-2.586,0l0,2l3,0a1,1 0 0 0 0.707,-0.293l3,-3l-1.414,-1.414l-2.707,2.707z"/>
     <path stroke-dasharray="5,2,2,2" stroke-width="99" id="svg_57" d="m6.528559,62.027757l9,0l0,2l-9,0l0,-2z"/>
     <path stroke-dasharray="5,2,2,2" stroke-width="99" id="svg_58" d="m13.528559,58.027757l2,0l0,2l-2,0l0,-2z"/>
     <path stroke-dasharray="5,2,2,2" stroke-width="99" id="svg_59" d="m6.528559,58.027757l5,0l0,2l-5,0l0,-2z"/>
     <path stroke-dasharray="5,2,2,2" stroke-width="99" id="svg_60" d="m6.528559,54.027757l9,0l0,2l-9,0l0,-2z"/>
     <path stroke-dasharray="5,2,2,2" stroke-width="99" id="svg_61" d="m19.528559,40.027757l22,0l0,2l-22,0l0,-2z"/>
    </g>
   </g>
  </g>
 </g>
</svg>