<svg width="81" height="82" xmlns="http://www.w3.org/2000/svg">

 <g>
  <title>background</title>
  <rect fill="none" id="canvas_background" height="84" width="83" y="-1" x="-1"/>
 </g>
 <g>
  <title>Layer 1</title>
  <path id="svg_7" d="m161.25781,472.16797l-126.25781,0c-4.14453,0 -7.5,3.35547 -7.5,7.5c0,4.14062 3.35547,7.5 7.5,7.5l126.25781,0c4.14453,0 7.5,-3.35938 7.5,-7.5c0,-4.14453 -3.35937,-7.5 -7.5,-7.5zm0,0"/>
  <g stroke="null" id="svg_8">
   <path stroke="null" id="svg_1" d="m57.662561,38.743379c0,-3.637413 -0.957947,-7.054277 -2.63324,-10.013886l4.387619,0c3.655792,0 6.629883,-2.97409 6.629883,-6.629883c0,-0.590362 -0.478417,-1.069336 -1.069336,-1.069336c-0.590363,0 -1.069336,0.478974 -1.069336,1.069336c0,2.476181 -2.014474,4.491211 -4.491211,4.491211l-5.780541,0c-3.720398,-4.996917 -9.671364,-8.240013 -16.365853,-8.240013c-10.88662,0 -19.807778,8.573623 -20.365837,19.323236l-0.813142,0c-1.246444,0 -2.260086,-1.0142 -2.260086,-2.260643l0,-13.31379c0,-0.590362 -0.478973,-1.069336 -1.069336,-1.069336c-0.590919,0 -1.069336,0.478974 -1.069336,1.069336l0,13.31379c0,2.425499 1.973258,4.399315 4.398758,4.399315l0.816484,0c0.398772,7.560539 4.99469,14.356391 11.942032,17.510376c0.000556,0 0.001114,0 0.001671,0.000556c2.651062,1.203003 5.483131,1.813416 8.418792,1.813416c2.174316,0 4.292382,-0.340294 6.292931,-0.985794l0,1.822884c0,2.819259 2.294059,5.112762 5.113319,5.112762l4.510704,0c0.590919,0 1.069336,-0.478973 1.069336,-1.069336s-0.478417,-1.069336 -1.069336,-1.069336l-4.51126,0c-1.639648,0 -2.974091,-1.334441 -2.974091,-2.97409l0,-2.650506c3.565011,-1.615142 6.639352,-4.252837 8.815895,-7.695319c0.315789,-0.499023 0.167084,-1.159562 -0.331939,-1.47535c-0.499023,-0.315232 -1.159562,-0.167084 -1.47535,0.332496c-1.766631,2.793083 -4.193246,4.995248 -7.008606,6.460014l0,-3.474784c0,-0.590362 -0.478417,-1.069336 -1.069336,-1.069336s-1.069336,0.478974 -1.069336,1.069336l0,4.418251c-1.98217,0.724586 -4.105804,1.109436 -6.293487,1.109436c-2.267327,0 -4.466149,-0.40657 -6.549683,-1.209686l2.491775,-5.499284c1.298797,0.45781 2.659416,0.688943 4.058464,0.688943c6.385384,0 11.644066,-4.918389 12.187645,-11.16565l6.035066,0c-0.085771,1.484817 -0.35032,2.946799 -0.78975,4.359771c-0.174881,0.56363 0.139794,1.162903 0.70398,1.338341c0.564186,0.175994 1.162903,-0.139794 1.338898,-0.703423c0.608184,-1.95655 0.916176,-3.996643 0.916176,-6.064026l0,0.000001zm-20.39257,10.096314c-1.452515,0 -2.854905,-0.301865 -4.167626,-0.89724c-3.601769,-1.634079 -5.928688,-5.245317 -5.928688,-9.199631c0,-2.502357 0.922858,-4.903352 2.597595,-6.760208c0.39543,-0.438317 0.360901,-1.114449 -0.077416,-1.509881c-0.438317,-0.395988 -1.114449,-0.360901 -1.510437,0.077416c-2.030067,2.250061 -3.148414,5.160103 -3.148414,8.192673c0,4.432731 2.413246,8.509018 6.229438,10.662728l-2.491775,5.498725c-5.646874,-2.975205 -9.348336,-8.723442 -9.723717,-15.092117l3.199097,0c0.590919,0 1.069336,-0.478974 1.069336,-1.069336s-0.478417,-1.069336 -1.069336,-1.069336l-3.200768,0c0.535225,-9.215225 7.937592,-16.618705 17.153375,-17.153373l0,6.034507c-1.283203,0.110276 -2.530206,0.421052 -3.719284,0.926758c-0.543023,0.231689 -0.796433,0.859368 -0.564743,1.402947c0.231132,0.543579 0.859367,0.796433 1.40239,0.565299c1.250343,-0.532439 2.579773,-0.802002 3.950974,-0.802002c5.566672,0 10.095756,4.528527 10.095756,10.0952c0,5.567787 -4.529084,10.096871 -10.095756,10.096871zm12.188201,-11.16565c-0.512948,-5.894714 -5.224151,-10.605919 -11.118309,-11.118309l0,-6.035066c4.972412,0.287941 9.415726,2.576988 12.539078,6.070153l-2.681694,0c-0.590919,0 -1.069336,0.478974 -1.069336,1.069336s0.478417,1.069336 1.069336,1.069336l4.328026,0c1.710938,2.597595 2.776931,5.655227 2.967965,8.94455l-6.035066,0zm0,0"/>
   <path stroke="null" id="svg_2" d="m66.237855,19.524292c5.382882,0 9.762146,-4.379264 9.762146,-9.762146c0,-1.857971 -0.524086,-3.66526 -1.516006,-5.227493c-0.316903,-0.498467 -0.97744,-0.646057 -1.475906,-0.329712c-0.499023,0.316901 -0.646057,0.97744 -0.329712,1.476464c0.774154,1.218597 1.182952,2.62934 1.182952,4.080741c0,1.950425 -0.737396,3.731538 -1.946525,5.081574c-0.475075,-0.754106 -1.200218,-1.33667 -2.081865,-1.632408l-0.935669,-0.314674c-0.065162,-0.021722 -0.124198,-0.057922 -0.172096,-0.104707c-0.006683,-0.007798 -0.013367,-0.015038 -0.020607,-0.022278c-0.076301,-0.085213 -0.117516,-0.194374 -0.117516,-0.310219l0,-0.707322l0.062935,-0.038987c0.713448,-0.43386 1.156219,-1.222495 1.156219,-2.057914l0,-3.100517c0,-1.440819 -1.17237,-2.61319 -2.613189,-2.61319l-1.910881,0c-1.440263,0 -2.612633,1.172371 -2.612633,2.61319l0,3.100517c0,0.835419 0.442772,1.623497 1.156219,2.057914l0.064049,0.038987l0,0.707322c0,0.128654 -0.054024,0.252854 -0.147591,0.340294c-0.046783,0.043442 -0.103034,0.076301 -0.166526,0.097465l-0.933999,0.314118c-0.432746,0.145919 -0.833747,0.363685 -1.193534,0.647728c-0.352547,0.280143 -0.650513,0.613753 -0.885544,0.985794c-1.210243,-1.350037 -1.948196,-3.131707 -1.948196,-5.082688c0,-4.203826 3.420204,-7.623474 7.623474,-7.623474c1.357834,0 2.690605,0.360901 3.853508,1.044274c0.50905,0.29908 1.164574,0.128654 1.463654,-0.380952c0.29908,-0.509048 0.128654,-1.164572 -0.380394,-1.463095c-1.491501,-0.876077 -3.198539,-1.338898 -4.936768,-1.338898c-5.382882,0 -9.762146,4.379264 -9.762146,9.762146s4.379264,9.762146 9.762146,9.762146zm-1.429679,-12.969597c0,-0.261207 0.212752,-0.474519 0.473961,-0.474519l1.910881,0c0.261765,0 0.474517,0.212754 0.474517,0.474519l0,3.100517c0,0.094124 -0.050125,0.182678 -0.129767,0.231689l-1.159561,0.705651c-0.086327,0.052353 -0.194375,0.052353 -0.281258,0l-1.159005,-0.705651c-0.0802,-0.049011 -0.129767,-0.137565 -0.129767,-0.231689l0,-3.100517zm-2.031738,8.980751c0.164298,-0.130325 0.349205,-0.230018 0.548035,-0.296852l0.932884,-0.314118c0.353659,-0.118629 0.670005,-0.306877 0.941238,-0.559173c0.45391,-0.422165 0.739624,-0.995262 0.810913,-1.605675c0.076301,0.00724 0.152045,0.012253 0.228347,0.012253s0.152603,-0.005013 0.228905,-0.012253c0.064605,0.560844 0.306321,1.084374 0.700637,1.497626c0.003342,0.0039 0.00724,0.007798 0.01114,0.01114c0.287383,0.298523 0.647728,0.525199 1.039818,0.656082l0.93344,0.314118c0.500137,0.167641 0.89,0.537453 1.088272,1.008072c-1.164016,0.721244 -2.535217,1.138397 -4.002212,1.138397c-1.466439,0 -2.837082,-0.417152 -4.001099,-1.137839c0.116402,-0.276245 0.299636,-0.521301 0.539681,-0.711777zm0,0"/>
   <path stroke="null" id="svg_3" d="m66.237855,53.475709c-5.382882,0 -9.762146,4.379264 -9.762146,9.762146s4.379264,9.762146 9.762146,9.762146s9.762146,-4.379264 9.762146,-9.762146s-4.379264,-9.762146 -9.762146,-9.762146zm-4.001099,16.247224c0.116402,-0.276245 0.299636,-0.521301 0.539681,-0.711777c0.164298,-0.129769 0.349205,-0.230018 0.548035,-0.296852l0.932884,-0.314118c0.353659,-0.118629 0.670005,-0.306321 0.941794,-0.559173c0.453354,-0.422165 0.739068,-0.995262 0.810357,-1.605675c0.076301,0.00724 0.152045,0.012253 0.228347,0.012253s0.152603,-0.005013 0.228905,-0.012253c0.064605,0.560844 0.306321,1.084374 0.700637,1.497626c0.003342,0.0039 0.00724,0.007798 0.01114,0.01114c0.287383,0.298523 0.647728,0.525757 1.039818,0.656082l0.93344,0.314118c0.500137,0.168197 0.89,0.538009 1.088272,1.008629c-1.164016,0.720687 -2.535217,1.138397 -4.002212,1.138397c-1.466439,0 -2.837082,-0.417152 -4.001099,-1.138397zm5.430778,-6.591454c0,0.093567 -0.049567,0.182121 -0.129767,0.231132l-1.159005,0.705651c-0.086883,0.052909 -0.194374,0.052909 -0.281257,0l-1.159562,-0.705651c-0.0802,-0.049011 -0.129767,-0.137565 -0.129767,-0.231689l0,-3.100517c0,-0.261207 0.212752,-0.474519 0.473961,-0.474519l1.910881,0c0.261765,0 0.474517,0.212754 0.474517,0.474519l0,3.101074zm4.24727,5.18795c-0.475075,-0.754106 -1.200218,-1.336114 -2.081865,-1.632408l-0.935669,-0.314674c-0.065162,-0.021722 -0.124198,-0.057922 -0.171539,-0.104707c-0.00724,-0.007798 -0.013924,-0.015038 -0.021164,-0.022278c-0.076301,-0.085213 -0.117516,-0.194374 -0.117516,-0.309661l0,-0.707879l0.062935,-0.038429c0.713447,-0.434417 1.156219,-1.223052 1.156219,-2.057914l0,-3.100518c0,-1.440819 -1.17237,-2.613189 -2.613189,-2.613189l-1.910881,0c-1.440263,0 -2.612633,1.171814 -2.612633,2.613189l0,3.100518c0,0.834862 0.442772,1.623497 1.156219,2.057914l0.064049,0.038987l0,0.707322c0,0.128096 -0.054024,0.252296 -0.147591,0.339737c-0.046783,0.043442 -0.103034,0.076301 -0.166526,0.098022l-0.933999,0.314117c-0.432746,0.14592 -0.833747,0.363129 -1.193534,0.647172c-0.352547,0.280143 -0.650513,0.614311 -0.885544,0.98635c-1.210243,-1.350037 -1.948196,-3.131706 -1.948196,-5.083244c0,-4.20327 3.420204,-7.622917 7.623474,-7.622917c4.203828,0 7.623474,3.419647 7.623474,7.622917c0,1.950981 -0.737396,3.732094 -1.946525,5.081574zm0,0"/>
   <path stroke="null" id="svg_4" d="m22.524292,9.762146c0,-5.382882 -4.379264,-9.762146 -9.762146,-9.762146s-9.762146,4.379264 -9.762146,9.762146s4.379264,9.762146 9.762146,9.762146s9.762146,-4.379264 9.762146,-9.762146zm-13.763802,6.485078c0.11696,-0.276245 0.300194,-0.521301 0.539681,-0.711777c0.164856,-0.130325 0.349205,-0.230018 0.548035,-0.296852l0.932884,-0.314118c0.353661,-0.118629 0.670006,-0.306877 0.941796,-0.559173c0.453354,-0.422723 0.739067,-0.995262 0.810913,-1.605675c0.075745,0.00724 0.152045,0.012253 0.22779,0.012253c0.07686,0 0.15316,-0.005013 0.229462,-0.012253c0.064049,0.560844 0.305763,1.084374 0.700081,1.497626c0.003898,0.0039 0.00724,0.007798 0.011138,0.01114c0.287385,0.298523 0.647728,0.525199 1.040375,0.656082l0.932883,0.314118c0.500694,0.167641 0.890557,0.537453 1.088273,1.008072c-1.164018,0.721244 -2.534661,1.138397 -4.001656,1.138397c-1.466995,0.000557 -2.837638,-0.417152 -4.001656,-1.137839zm5.430779,-6.592011c0,0.094124 -0.049569,0.182678 -0.129211,0.231689c-0.000557,0 -0.000557,0 -0.000557,0l-1.159003,0.705651c-0.086884,0.052353 -0.194375,0.052353 -0.281258,0l-1.159561,-0.705651c-0.0802,-0.049011 -0.129769,-0.137565 -0.129769,-0.231689l0,-3.100517c0,-0.261207 0.212754,-0.474519 0.474519,-0.474519l1.910881,0c0.261207,0 0.473961,0.212754 0.473961,0.474519l0,3.100517zm-9.052598,0.106934c0,-4.203826 3.419648,-7.623474 7.623474,-7.623474c4.20327,0 7.623474,3.419648 7.623474,7.623474c0,1.950425 -0.737396,3.731538 -1.947083,5.081017c-0.474517,-0.753548 -1.199661,-1.336112 -2.081307,-1.632408l-0.935669,-0.314674c-0.065162,-0.021164 -0.124198,-0.057365 -0.172096,-0.104707c-0.006683,-0.00724 -0.013923,-0.01448 -0.020607,-0.02172c-0.076301,-0.085213 -0.118072,-0.194931 -0.118072,-0.310219l0,-0.707878l0.063491,-0.038431l-0.000557,0c0.713448,-0.43386 1.156776,-1.222495 1.156776,-2.057914l0,-3.100517c0,-1.440819 -1.17237,-2.61319 -2.613189,-2.61319l-1.910881,0c-1.440819,0 -2.61319,1.172371 -2.61319,2.61319l0,3.100517c0,0.835419 0.44333,1.624055 1.156776,2.057914l0.064049,0.039544l0,0.706764c0,0.128654 -0.054024,0.252854 -0.148147,0.340294c-0.046784,0.043442 -0.103036,0.076301 -0.166527,0.097465l-0.933442,0.314118c-0.433303,0.145919 -0.834304,0.363685 -1.193534,0.647728c-0.353103,0.280143 -0.65107,0.613753 -0.8861,0.985794c-1.209687,-1.350037 -1.94764,-3.131707 -1.94764,-5.082688zm0,0"/>
   <path stroke="null" id="svg_5" d="m20.70475,58.487108c0,-0.590919 -0.478973,-1.069336 -1.069336,-1.069336l-11.64518,0c-0.590919,0 -1.069336,0.478417 -1.069336,1.069336c0,0.590362 0.478417,1.069336 1.069336,1.069336l11.64518,0c0.590363,0 1.069336,-0.478974 1.069336,-1.069336zm0,0"/>
   <path stroke="null" id="svg_6" d="m7.990234,62.168519c-0.590919,0 -1.069336,0.478974 -1.069336,1.069336c0,0.590919 0.478417,1.069336 1.069336,1.069336l8.160927,0c0.590363,0 1.069336,-0.478417 1.069336,-1.069336c0,-0.590362 -0.478973,-1.069336 -1.069336,-1.069336l-8.160927,0zm0,0"/>
  </g>
 </g>
</svg>